<mxfile host="app.diagrams.net" agent="Mozilla/5.0 (Windows NT 10.0; Win64; x64) AppleWebKit/537.36 (KHTML, like Gecko) Chrome/132.0.0.0 Safari/537.36" version="26.0.10">
  <diagram id="R2lEEEUBdFMjLlhIrx00" name="Page-1">
    <mxGraphModel dx="2284" dy="1872" grid="1" gridSize="10" guides="1" tooltips="1" connect="1" arrows="1" fold="1" page="1" pageScale="1" pageWidth="850" pageHeight="1100" background="none" math="0" shadow="1" extFonts="Permanent Marker^https://fonts.googleapis.com/css?family=Permanent+Marker">
      <root>
        <mxCell id="0" />
        <mxCell id="1" parent="0" />
        <mxCell id="cuxxM6oUsgKgIQG3Uy1h-31" style="edgeStyle=orthogonalEdgeStyle;shape=connector;rounded=0;orthogonalLoop=1;jettySize=auto;html=1;strokeColor=default;align=center;verticalAlign=middle;fontFamily=Helvetica;fontSize=11;fontColor=default;labelBackgroundColor=default;endArrow=none;endFill=0;shadow=1;" parent="1" edge="1">
          <mxGeometry relative="1" as="geometry">
            <Array as="points">
              <mxPoint x="-300" y="360" />
              <mxPoint x="700" y="360" />
              <mxPoint x="700" y="570" />
              <mxPoint x="405" y="570" />
            </Array>
            <mxPoint x="405" y="540" as="targetPoint" />
          </mxGeometry>
        </mxCell>
        <mxCell id="cuxxM6oUsgKgIQG3Uy1h-32" style="edgeStyle=orthogonalEdgeStyle;shape=connector;rounded=0;orthogonalLoop=1;jettySize=auto;html=1;entryX=0.898;entryY=0.988;entryDx=0;entryDy=0;entryPerimeter=0;strokeColor=default;align=center;verticalAlign=middle;fontFamily=Helvetica;fontSize=11;fontColor=default;labelBackgroundColor=default;endArrow=none;endFill=0;shadow=1;" parent="1" edge="1">
          <mxGeometry relative="1" as="geometry">
            <Array as="points">
              <mxPoint x="-300" y="1000" />
              <mxPoint x="11" y="1000" />
            </Array>
            <mxPoint x="10.820000000000164" y="909.52" as="targetPoint" />
          </mxGeometry>
        </mxCell>
        <mxCell id="WKvD1eDFNHThaiheCUBa-50" style="edgeStyle=orthogonalEdgeStyle;shape=connector;rounded=0;orthogonalLoop=1;jettySize=auto;html=1;entryX=0;entryY=0.5;entryDx=0;entryDy=0;strokeColor=default;align=center;verticalAlign=middle;fontFamily=Helvetica;fontSize=11;fontColor=default;labelBackgroundColor=default;endArrow=none;endFill=0;" parent="1" source="dXIRx6bEltP1LMhkaaQE-2" target="WKvD1eDFNHThaiheCUBa-49" edge="1">
          <mxGeometry relative="1" as="geometry">
            <Array as="points">
              <mxPoint x="-10" y="-110" />
            </Array>
          </mxGeometry>
        </mxCell>
        <mxCell id="dXIRx6bEltP1LMhkaaQE-2" value="Users" style="rounded=1;arcSize=10;whiteSpace=wrap;html=1;align=center;" parent="1" vertex="1">
          <mxGeometry x="-80" y="-210" width="100" height="40" as="geometry" />
        </mxCell>
        <mxCell id="dXIRx6bEltP1LMhkaaQE-4" style="edgeStyle=orthogonalEdgeStyle;rounded=0;orthogonalLoop=1;jettySize=auto;html=1;entryX=0;entryY=0.5;entryDx=0;entryDy=0;endArrow=none;endFill=0;" parent="1" source="dXIRx6bEltP1LMhkaaQE-3" target="dXIRx6bEltP1LMhkaaQE-2" edge="1">
          <mxGeometry relative="1" as="geometry">
            <Array as="points">
              <mxPoint x="-98.99" y="-180" />
            </Array>
          </mxGeometry>
        </mxCell>
        <mxCell id="dXIRx6bEltP1LMhkaaQE-3" value="UserId" style="ellipse;whiteSpace=wrap;html=1;align=center;fontStyle=4;" parent="1" vertex="1">
          <mxGeometry x="-190" y="-260" width="100" height="40" as="geometry" />
        </mxCell>
        <mxCell id="dXIRx6bEltP1LMhkaaQE-9" style="edgeStyle=orthogonalEdgeStyle;shape=connector;rounded=0;orthogonalLoop=1;jettySize=auto;html=1;strokeColor=default;align=center;verticalAlign=middle;fontFamily=Helvetica;fontSize=11;fontColor=default;labelBackgroundColor=default;endArrow=none;endFill=0;" parent="1" source="dXIRx6bEltP1LMhkaaQE-5" target="dXIRx6bEltP1LMhkaaQE-2" edge="1">
          <mxGeometry relative="1" as="geometry">
            <Array as="points">
              <mxPoint x="-70" y="-235" />
              <mxPoint x="-59.99999999999999" y="-235" />
            </Array>
          </mxGeometry>
        </mxCell>
        <mxCell id="dXIRx6bEltP1LMhkaaQE-5" value="Name" style="ellipse;whiteSpace=wrap;html=1;align=center;fontFamily=Helvetica;fontSize=11;fontColor=default;labelBackgroundColor=default;" parent="1" vertex="1">
          <mxGeometry x="-130" y="-300" width="100" height="40" as="geometry" />
        </mxCell>
        <mxCell id="dXIRx6bEltP1LMhkaaQE-10" style="edgeStyle=orthogonalEdgeStyle;shape=connector;rounded=0;orthogonalLoop=1;jettySize=auto;html=1;entryX=0.75;entryY=0;entryDx=0;entryDy=0;strokeColor=default;align=center;verticalAlign=middle;fontFamily=Helvetica;fontSize=11;fontColor=default;labelBackgroundColor=default;endArrow=none;endFill=0;" parent="1" source="dXIRx6bEltP1LMhkaaQE-6" target="dXIRx6bEltP1LMhkaaQE-2" edge="1">
          <mxGeometry relative="1" as="geometry">
            <Array as="points">
              <mxPoint x="35.00000000000001" y="-235" />
              <mxPoint x="10.000000000000007" y="-235" />
              <mxPoint x="10.000000000000007" y="-210" />
            </Array>
          </mxGeometry>
        </mxCell>
        <mxCell id="dXIRx6bEltP1LMhkaaQE-6" value="Phone" style="ellipse;whiteSpace=wrap;html=1;align=center;fontFamily=Helvetica;fontSize=11;fontColor=default;labelBackgroundColor=default;gradientColor=none;" parent="1" vertex="1">
          <mxGeometry x="-14.999999999999993" y="-300" width="100" height="40" as="geometry" />
        </mxCell>
        <mxCell id="dXIRx6bEltP1LMhkaaQE-11" style="edgeStyle=orthogonalEdgeStyle;shape=connector;rounded=0;orthogonalLoop=1;jettySize=auto;html=1;entryX=1;entryY=0.5;entryDx=0;entryDy=0;strokeColor=default;align=center;verticalAlign=middle;fontFamily=Helvetica;fontSize=11;fontColor=default;labelBackgroundColor=default;endArrow=none;endFill=0;" parent="1" source="dXIRx6bEltP1LMhkaaQE-7" target="dXIRx6bEltP1LMhkaaQE-2" edge="1">
          <mxGeometry relative="1" as="geometry">
            <Array as="points">
              <mxPoint x="90" y="-190" />
            </Array>
          </mxGeometry>
        </mxCell>
        <mxCell id="dXIRx6bEltP1LMhkaaQE-7" value="Role" style="ellipse;whiteSpace=wrap;html=1;align=center;fontFamily=Helvetica;fontSize=11;fontColor=default;labelBackgroundColor=default;" parent="1" vertex="1">
          <mxGeometry x="45.00000000000001" y="-260" width="100" height="40" as="geometry" />
        </mxCell>
        <mxCell id="dXIRx6bEltP1LMhkaaQE-8" value="Password" style="ellipse;whiteSpace=wrap;html=1;align=center;fontFamily=Helvetica;fontSize=11;fontColor=default;labelBackgroundColor=default;" parent="1" vertex="1">
          <mxGeometry x="-70" y="-360" width="100" height="40" as="geometry" />
        </mxCell>
        <mxCell id="dXIRx6bEltP1LMhkaaQE-12" style="edgeStyle=orthogonalEdgeStyle;shape=connector;rounded=0;orthogonalLoop=1;jettySize=auto;html=1;strokeColor=default;align=center;verticalAlign=middle;fontFamily=Helvetica;fontSize=11;fontColor=default;labelBackgroundColor=default;endArrow=none;endFill=0;" parent="1" source="dXIRx6bEltP1LMhkaaQE-8" edge="1">
          <mxGeometry relative="1" as="geometry">
            <mxPoint x="-19.999999999999993" y="-220" as="targetPoint" />
            <Array as="points">
              <mxPoint x="-19.999999999999993" y="-270" />
              <mxPoint x="-19.999999999999993" y="-270" />
            </Array>
          </mxGeometry>
        </mxCell>
        <mxCell id="WKvD1eDFNHThaiheCUBa-2" value="Inventories&amp;nbsp;" style="rounded=1;arcSize=10;whiteSpace=wrap;html=1;align=center;" parent="1" vertex="1">
          <mxGeometry x="311.25" y="-220" width="100" height="40" as="geometry" />
        </mxCell>
        <mxCell id="WKvD1eDFNHThaiheCUBa-8" style="edgeStyle=orthogonalEdgeStyle;rounded=0;orthogonalLoop=1;jettySize=auto;html=1;endArrow=none;endFill=0;" parent="1" source="WKvD1eDFNHThaiheCUBa-3" target="WKvD1eDFNHThaiheCUBa-2" edge="1">
          <mxGeometry relative="1" as="geometry">
            <Array as="points">
              <mxPoint x="211.26" y="-200" />
            </Array>
          </mxGeometry>
        </mxCell>
        <mxCell id="WKvD1eDFNHThaiheCUBa-3" value="InventoryId" style="ellipse;whiteSpace=wrap;html=1;align=center;fontStyle=4;gradientColor=none;" parent="1" vertex="1">
          <mxGeometry x="161.26" y="-260" width="100" height="40" as="geometry" />
        </mxCell>
        <mxCell id="WKvD1eDFNHThaiheCUBa-4" value="FuelName" style="ellipse;whiteSpace=wrap;html=1;align=center;fontFamily=Helvetica;fontSize=11;fontColor=default;labelBackgroundColor=default;gradientColor=none;" parent="1" vertex="1">
          <mxGeometry x="241.25" y="-310" width="100" height="40" as="geometry" />
        </mxCell>
        <mxCell id="WKvD1eDFNHThaiheCUBa-11" style="edgeStyle=orthogonalEdgeStyle;shape=connector;rounded=0;orthogonalLoop=1;jettySize=auto;html=1;strokeColor=default;align=center;verticalAlign=middle;fontFamily=Helvetica;fontSize=11;fontColor=default;labelBackgroundColor=default;endArrow=none;endFill=0;" parent="1" source="WKvD1eDFNHThaiheCUBa-5" target="WKvD1eDFNHThaiheCUBa-2" edge="1">
          <mxGeometry relative="1" as="geometry">
            <Array as="points">
              <mxPoint x="491.26" y="-200" />
            </Array>
          </mxGeometry>
        </mxCell>
        <mxCell id="WKvD1eDFNHThaiheCUBa-5" value="PricePerLitre" style="ellipse;whiteSpace=wrap;html=1;align=center;fontFamily=Helvetica;fontSize=11;fontColor=default;labelBackgroundColor=default;" parent="1" vertex="1">
          <mxGeometry x="433.77" y="-260" width="100" height="40" as="geometry" />
        </mxCell>
        <mxCell id="WKvD1eDFNHThaiheCUBa-10" style="edgeStyle=orthogonalEdgeStyle;shape=connector;rounded=0;orthogonalLoop=1;jettySize=auto;html=1;entryX=0.75;entryY=0;entryDx=0;entryDy=0;strokeColor=default;align=center;verticalAlign=middle;fontFamily=Helvetica;fontSize=11;fontColor=default;labelBackgroundColor=default;endArrow=none;endFill=0;" parent="1" source="WKvD1eDFNHThaiheCUBa-6" target="WKvD1eDFNHThaiheCUBa-2" edge="1">
          <mxGeometry relative="1" as="geometry">
            <Array as="points">
              <mxPoint x="404.26" y="-245" />
              <mxPoint x="371.26" y="-245" />
              <mxPoint x="371.26" y="-220" />
            </Array>
          </mxGeometry>
        </mxCell>
        <mxCell id="WKvD1eDFNHThaiheCUBa-6" value="StockQuantity" style="ellipse;whiteSpace=wrap;html=1;align=center;fontFamily=Helvetica;fontSize=11;fontColor=default;labelBackgroundColor=default;gradientColor=none;" parent="1" vertex="1">
          <mxGeometry x="353.77" y="-310" width="100" height="40" as="geometry" />
        </mxCell>
        <mxCell id="WKvD1eDFNHThaiheCUBa-9" style="edgeStyle=orthogonalEdgeStyle;rounded=0;orthogonalLoop=1;jettySize=auto;html=1;entryX=0.12;entryY=-0.025;entryDx=0;entryDy=0;entryPerimeter=0;endArrow=none;endFill=0;" parent="1" source="WKvD1eDFNHThaiheCUBa-4" target="WKvD1eDFNHThaiheCUBa-2" edge="1">
          <mxGeometry relative="1" as="geometry" />
        </mxCell>
        <mxCell id="WKvD1eDFNHThaiheCUBa-12" value="Sales" style="rounded=1;arcSize=10;whiteSpace=wrap;html=1;align=center;" parent="1" vertex="1">
          <mxGeometry x="650" y="-220" width="100" height="40" as="geometry" />
        </mxCell>
        <mxCell id="WKvD1eDFNHThaiheCUBa-17" style="edgeStyle=orthogonalEdgeStyle;shape=connector;rounded=0;orthogonalLoop=1;jettySize=auto;html=1;entryX=0;entryY=0.5;entryDx=0;entryDy=0;strokeColor=default;align=center;verticalAlign=middle;fontFamily=Helvetica;fontSize=11;fontColor=default;labelBackgroundColor=default;endArrow=none;endFill=0;" parent="1" source="WKvD1eDFNHThaiheCUBa-13" target="WKvD1eDFNHThaiheCUBa-12" edge="1">
          <mxGeometry relative="1" as="geometry" />
        </mxCell>
        <mxCell id="WKvD1eDFNHThaiheCUBa-13" value="SaleId" style="ellipse;whiteSpace=wrap;html=1;align=center;fontStyle=4;" parent="1" vertex="1">
          <mxGeometry x="550" y="-270" width="100" height="40" as="geometry" />
        </mxCell>
        <mxCell id="WKvD1eDFNHThaiheCUBa-19" style="edgeStyle=orthogonalEdgeStyle;shape=connector;rounded=0;orthogonalLoop=1;jettySize=auto;html=1;entryX=0.75;entryY=0;entryDx=0;entryDy=0;strokeColor=default;align=center;verticalAlign=middle;fontFamily=Helvetica;fontSize=11;fontColor=default;labelBackgroundColor=default;endArrow=none;endFill=0;" parent="1" source="WKvD1eDFNHThaiheCUBa-14" target="WKvD1eDFNHThaiheCUBa-12" edge="1">
          <mxGeometry relative="1" as="geometry">
            <Array as="points">
              <mxPoint x="770" y="-250" />
              <mxPoint x="725" y="-250" />
            </Array>
          </mxGeometry>
        </mxCell>
        <mxCell id="WKvD1eDFNHThaiheCUBa-14" value="SaleDateTime" style="ellipse;whiteSpace=wrap;html=1;align=center;fontFamily=Helvetica;fontSize=11;fontColor=default;labelBackgroundColor=default;" parent="1" vertex="1">
          <mxGeometry x="720" y="-320" width="100" height="40" as="geometry" />
        </mxCell>
        <mxCell id="WKvD1eDFNHThaiheCUBa-15" value="CreatedBy (FK)" style="ellipse;whiteSpace=wrap;html=1;align=center;fontFamily=Helvetica;fontSize=11;fontColor=default;labelBackgroundColor=default;" parent="1" vertex="1">
          <mxGeometry x="615" y="-320" width="100" height="40" as="geometry" />
        </mxCell>
        <mxCell id="WKvD1eDFNHThaiheCUBa-20" style="edgeStyle=orthogonalEdgeStyle;shape=connector;rounded=0;orthogonalLoop=1;jettySize=auto;html=1;entryX=1;entryY=0.5;entryDx=0;entryDy=0;strokeColor=default;align=center;verticalAlign=middle;fontFamily=Helvetica;fontSize=11;fontColor=default;labelBackgroundColor=default;endArrow=none;endFill=0;" parent="1" source="WKvD1eDFNHThaiheCUBa-16" target="WKvD1eDFNHThaiheCUBa-12" edge="1">
          <mxGeometry relative="1" as="geometry">
            <Array as="points">
              <mxPoint x="830" y="-200" />
            </Array>
          </mxGeometry>
        </mxCell>
        <mxCell id="WKvD1eDFNHThaiheCUBa-16" value="GrandTotal" style="ellipse;whiteSpace=wrap;html=1;align=center;fontFamily=Helvetica;fontSize=11;fontColor=default;labelBackgroundColor=default;" parent="1" vertex="1">
          <mxGeometry x="780" y="-270" width="100" height="40" as="geometry" />
        </mxCell>
        <mxCell id="WKvD1eDFNHThaiheCUBa-18" style="edgeStyle=orthogonalEdgeStyle;shape=connector;rounded=0;orthogonalLoop=1;jettySize=auto;html=1;entryX=0.38;entryY=-0.075;entryDx=0;entryDy=0;entryPerimeter=0;strokeColor=default;align=center;verticalAlign=middle;fontFamily=Helvetica;fontSize=11;fontColor=default;labelBackgroundColor=default;endArrow=none;endFill=0;" parent="1" source="WKvD1eDFNHThaiheCUBa-15" target="WKvD1eDFNHThaiheCUBa-12" edge="1">
          <mxGeometry relative="1" as="geometry" />
        </mxCell>
        <mxCell id="WKvD1eDFNHThaiheCUBa-21" value="SaleDetails" style="rounded=1;arcSize=10;whiteSpace=wrap;html=1;align=center;" parent="1" vertex="1">
          <mxGeometry x="511.25" y="120" width="100" height="40" as="geometry" />
        </mxCell>
        <mxCell id="WKvD1eDFNHThaiheCUBa-30" style="edgeStyle=orthogonalEdgeStyle;shape=connector;rounded=0;orthogonalLoop=1;jettySize=auto;html=1;entryX=0;entryY=0.5;entryDx=0;entryDy=0;strokeColor=default;align=center;verticalAlign=middle;fontFamily=Helvetica;fontSize=11;fontColor=default;labelBackgroundColor=default;endArrow=none;endFill=0;" parent="1" source="WKvD1eDFNHThaiheCUBa-23" target="WKvD1eDFNHThaiheCUBa-21" edge="1">
          <mxGeometry relative="1" as="geometry">
            <Array as="points">
              <mxPoint x="391.25" y="140" />
            </Array>
          </mxGeometry>
        </mxCell>
        <mxCell id="WKvD1eDFNHThaiheCUBa-23" value="SaleDetailsId" style="ellipse;whiteSpace=wrap;html=1;align=center;fontStyle=4;" parent="1" vertex="1">
          <mxGeometry x="341.25" y="60" width="100" height="40" as="geometry" />
        </mxCell>
        <mxCell id="WKvD1eDFNHThaiheCUBa-24" value="SaleId (FK)" style="ellipse;whiteSpace=wrap;html=1;align=center;fontFamily=Helvetica;fontSize=11;fontColor=default;labelBackgroundColor=default;" parent="1" vertex="1">
          <mxGeometry x="421.25" y="20" width="100" height="40" as="geometry" />
        </mxCell>
        <mxCell id="WKvD1eDFNHThaiheCUBa-32" style="edgeStyle=orthogonalEdgeStyle;shape=connector;rounded=0;orthogonalLoop=1;jettySize=auto;html=1;entryX=0.5;entryY=0;entryDx=0;entryDy=0;strokeColor=default;align=center;verticalAlign=middle;fontFamily=Helvetica;fontSize=11;fontColor=default;labelBackgroundColor=default;endArrow=none;endFill=0;" parent="1" source="WKvD1eDFNHThaiheCUBa-25" target="WKvD1eDFNHThaiheCUBa-21" edge="1">
          <mxGeometry relative="1" as="geometry" />
        </mxCell>
        <mxCell id="WKvD1eDFNHThaiheCUBa-25" value="InventoryId (FK)" style="ellipse;whiteSpace=wrap;html=1;align=center;fontFamily=Helvetica;fontSize=11;fontColor=default;labelBackgroundColor=default;" parent="1" vertex="1">
          <mxGeometry x="511.25" y="-10" width="100" height="40" as="geometry" />
        </mxCell>
        <mxCell id="WKvD1eDFNHThaiheCUBa-26" value="Quantity" style="ellipse;whiteSpace=wrap;html=1;align=center;fontFamily=Helvetica;fontSize=11;fontColor=default;labelBackgroundColor=default;" parent="1" vertex="1">
          <mxGeometry x="690" y="10" width="100" height="40" as="geometry" />
        </mxCell>
        <mxCell id="WKvD1eDFNHThaiheCUBa-34" style="edgeStyle=orthogonalEdgeStyle;shape=connector;rounded=0;orthogonalLoop=1;jettySize=auto;html=1;entryX=1;entryY=0.75;entryDx=0;entryDy=0;strokeColor=default;align=center;verticalAlign=middle;fontFamily=Helvetica;fontSize=11;fontColor=default;labelBackgroundColor=default;endArrow=none;endFill=0;" parent="1" edge="1">
          <mxGeometry relative="1" as="geometry">
            <mxPoint x="771.25" y="90.00478370345971" as="sourcePoint" />
            <mxPoint x="611.25" y="140.02999999999997" as="targetPoint" />
            <Array as="points">
              <mxPoint x="771.25" y="140.02999999999997" />
            </Array>
          </mxGeometry>
        </mxCell>
        <mxCell id="WKvD1eDFNHThaiheCUBa-27" value="Total" style="ellipse;whiteSpace=wrap;html=1;align=center;fontFamily=Helvetica;fontSize=11;fontColor=default;labelBackgroundColor=default;" parent="1" vertex="1">
          <mxGeometry x="720" y="60" width="100" height="40" as="geometry" />
        </mxCell>
        <mxCell id="WKvD1eDFNHThaiheCUBa-31" style="edgeStyle=orthogonalEdgeStyle;shape=connector;rounded=0;orthogonalLoop=1;jettySize=auto;html=1;entryX=0.11;entryY=-0.025;entryDx=0;entryDy=0;entryPerimeter=0;strokeColor=default;align=center;verticalAlign=middle;fontFamily=Helvetica;fontSize=11;fontColor=default;labelBackgroundColor=default;endArrow=none;endFill=0;" parent="1" source="WKvD1eDFNHThaiheCUBa-24" target="WKvD1eDFNHThaiheCUBa-21" edge="1">
          <mxGeometry relative="1" as="geometry" />
        </mxCell>
        <mxCell id="WKvD1eDFNHThaiheCUBa-33" style="edgeStyle=orthogonalEdgeStyle;shape=connector;rounded=0;orthogonalLoop=1;jettySize=auto;html=1;entryX=1;entryY=0.5;entryDx=0;entryDy=0;strokeColor=default;align=center;verticalAlign=middle;fontFamily=Helvetica;fontSize=11;fontColor=default;labelBackgroundColor=default;endArrow=none;endFill=0;" parent="1" source="WKvD1eDFNHThaiheCUBa-26" target="WKvD1eDFNHThaiheCUBa-21" edge="1">
          <mxGeometry relative="1" as="geometry">
            <Array as="points">
              <mxPoint x="681.25" y="130" />
              <mxPoint x="611.25" y="130" />
            </Array>
          </mxGeometry>
        </mxCell>
        <mxCell id="WKvD1eDFNHThaiheCUBa-35" value="Expenses" style="rounded=1;arcSize=10;whiteSpace=wrap;html=1;align=center;" parent="1" vertex="1">
          <mxGeometry x="-47.48000000000002" y="130" width="100" height="40" as="geometry" />
        </mxCell>
        <mxCell id="WKvD1eDFNHThaiheCUBa-42" style="edgeStyle=orthogonalEdgeStyle;shape=connector;rounded=0;orthogonalLoop=1;jettySize=auto;html=1;entryX=0;entryY=0.5;entryDx=0;entryDy=0;strokeColor=default;align=center;verticalAlign=middle;fontFamily=Helvetica;fontSize=11;fontColor=default;labelBackgroundColor=default;endArrow=none;endFill=0;" parent="1" source="WKvD1eDFNHThaiheCUBa-36" target="WKvD1eDFNHThaiheCUBa-35" edge="1">
          <mxGeometry relative="1" as="geometry">
            <Array as="points">
              <mxPoint x="-119.99000000000001" y="150" />
            </Array>
          </mxGeometry>
        </mxCell>
        <mxCell id="WKvD1eDFNHThaiheCUBa-36" value="ExpenseId" style="ellipse;whiteSpace=wrap;html=1;align=center;fontStyle=4;" parent="1" vertex="1">
          <mxGeometry x="-170" y="70" width="100" height="40" as="geometry" />
        </mxCell>
        <mxCell id="WKvD1eDFNHThaiheCUBa-37" value="Amount" style="ellipse;whiteSpace=wrap;html=1;align=center;fontFamily=Helvetica;fontSize=11;fontColor=default;labelBackgroundColor=default;" parent="1" vertex="1">
          <mxGeometry x="-95" y="20" width="100" height="40" as="geometry" />
        </mxCell>
        <mxCell id="WKvD1eDFNHThaiheCUBa-45" style="edgeStyle=orthogonalEdgeStyle;shape=connector;rounded=0;orthogonalLoop=1;jettySize=auto;html=1;entryX=0.5;entryY=0;entryDx=0;entryDy=0;strokeColor=default;align=center;verticalAlign=middle;fontFamily=Helvetica;fontSize=11;fontColor=default;labelBackgroundColor=default;endArrow=none;endFill=0;" parent="1" source="WKvD1eDFNHThaiheCUBa-38" target="WKvD1eDFNHThaiheCUBa-35" edge="1">
          <mxGeometry relative="1" as="geometry" />
        </mxCell>
        <mxCell id="WKvD1eDFNHThaiheCUBa-38" value="Category" style="ellipse;whiteSpace=wrap;html=1;align=center;fontFamily=Helvetica;fontSize=11;fontColor=default;labelBackgroundColor=default;" parent="1" vertex="1">
          <mxGeometry x="-24.99000000000001" y="-20" width="100" height="40" as="geometry" />
        </mxCell>
        <mxCell id="WKvD1eDFNHThaiheCUBa-39" value="DateTime" style="ellipse;whiteSpace=wrap;html=1;align=center;fontFamily=Helvetica;fontSize=11;fontColor=default;labelBackgroundColor=default;" parent="1" vertex="1">
          <mxGeometry x="35" y="20" width="100" height="40" as="geometry" />
        </mxCell>
        <mxCell id="WKvD1eDFNHThaiheCUBa-47" style="edgeStyle=orthogonalEdgeStyle;shape=connector;rounded=0;orthogonalLoop=1;jettySize=auto;html=1;entryX=1;entryY=0.25;entryDx=0;entryDy=0;strokeColor=default;align=center;verticalAlign=middle;fontFamily=Helvetica;fontSize=11;fontColor=default;labelBackgroundColor=default;endArrow=none;endFill=0;" parent="1" source="WKvD1eDFNHThaiheCUBa-40" target="WKvD1eDFNHThaiheCUBa-35" edge="1">
          <mxGeometry relative="1" as="geometry">
            <Array as="points">
              <mxPoint x="130.01" y="140" />
            </Array>
          </mxGeometry>
        </mxCell>
        <mxCell id="WKvD1eDFNHThaiheCUBa-40" value="Description" style="ellipse;whiteSpace=wrap;html=1;align=center;fontFamily=Helvetica;fontSize=11;fontColor=default;labelBackgroundColor=default;" parent="1" vertex="1">
          <mxGeometry x="110.00999999999999" y="70" width="100" height="40" as="geometry" />
        </mxCell>
        <mxCell id="WKvD1eDFNHThaiheCUBa-48" style="edgeStyle=orthogonalEdgeStyle;shape=connector;rounded=0;orthogonalLoop=1;jettySize=auto;html=1;entryX=1;entryY=0.5;entryDx=0;entryDy=0;strokeColor=default;align=center;verticalAlign=middle;fontFamily=Helvetica;fontSize=11;fontColor=default;labelBackgroundColor=default;endArrow=none;endFill=0;" parent="1" source="WKvD1eDFNHThaiheCUBa-41" target="WKvD1eDFNHThaiheCUBa-35" edge="1">
          <mxGeometry relative="1" as="geometry" />
        </mxCell>
        <mxCell id="WKvD1eDFNHThaiheCUBa-41" value="CreatedBy(FK)" style="ellipse;whiteSpace=wrap;html=1;align=center;fontFamily=Helvetica;fontSize=11;fontColor=default;labelBackgroundColor=default;" parent="1" vertex="1">
          <mxGeometry x="160.01" y="130" width="100" height="40" as="geometry" />
        </mxCell>
        <mxCell id="WKvD1eDFNHThaiheCUBa-43" style="edgeStyle=orthogonalEdgeStyle;shape=connector;rounded=0;orthogonalLoop=1;jettySize=auto;html=1;entryX=0.345;entryY=-0.05;entryDx=0;entryDy=0;entryPerimeter=0;strokeColor=default;align=center;verticalAlign=middle;fontFamily=Helvetica;fontSize=11;fontColor=default;labelBackgroundColor=default;endArrow=none;endFill=0;" parent="1" source="WKvD1eDFNHThaiheCUBa-37" target="WKvD1eDFNHThaiheCUBa-35" edge="1">
          <mxGeometry relative="1" as="geometry" />
        </mxCell>
        <mxCell id="WKvD1eDFNHThaiheCUBa-46" style="edgeStyle=orthogonalEdgeStyle;shape=connector;rounded=0;orthogonalLoop=1;jettySize=auto;html=1;entryX=0.695;entryY=-0.075;entryDx=0;entryDy=0;entryPerimeter=0;strokeColor=default;align=center;verticalAlign=middle;fontFamily=Helvetica;fontSize=11;fontColor=default;labelBackgroundColor=default;endArrow=none;endFill=0;" parent="1" source="WKvD1eDFNHThaiheCUBa-39" target="WKvD1eDFNHThaiheCUBa-35" edge="1">
          <mxGeometry relative="1" as="geometry" />
        </mxCell>
        <mxCell id="WKvD1eDFNHThaiheCUBa-51" style="edgeStyle=orthogonalEdgeStyle;shape=connector;rounded=0;orthogonalLoop=1;jettySize=auto;html=1;entryX=0.5;entryY=1;entryDx=0;entryDy=0;strokeColor=default;align=center;verticalAlign=middle;fontFamily=Helvetica;fontSize=11;fontColor=default;labelBackgroundColor=default;endArrow=none;endFill=0;" parent="1" source="WKvD1eDFNHThaiheCUBa-49" target="WKvD1eDFNHThaiheCUBa-2" edge="1">
          <mxGeometry relative="1" as="geometry">
            <Array as="points">
              <mxPoint x="320" y="-110" />
              <mxPoint x="320" y="-180" />
            </Array>
          </mxGeometry>
        </mxCell>
        <mxCell id="WKvD1eDFNHThaiheCUBa-49" value="Manage" style="shape=rhombus;perimeter=rhombusPerimeter;whiteSpace=wrap;html=1;align=center;fontFamily=Helvetica;fontSize=11;fontColor=default;labelBackgroundColor=default;" parent="1" vertex="1">
          <mxGeometry x="70" y="-140" width="120" height="60" as="geometry" />
        </mxCell>
        <mxCell id="WKvD1eDFNHThaiheCUBa-53" style="edgeStyle=orthogonalEdgeStyle;shape=connector;rounded=0;orthogonalLoop=1;jettySize=auto;html=1;entryX=0.5;entryY=1;entryDx=0;entryDy=0;strokeColor=default;align=center;verticalAlign=middle;fontFamily=Helvetica;fontSize=11;fontColor=default;labelBackgroundColor=default;endArrow=none;endFill=0;" parent="1" source="WKvD1eDFNHThaiheCUBa-52" target="WKvD1eDFNHThaiheCUBa-12" edge="1">
          <mxGeometry relative="1" as="geometry" />
        </mxCell>
        <mxCell id="WKvD1eDFNHThaiheCUBa-52" value="Contains" style="shape=rhombus;perimeter=rhombusPerimeter;whiteSpace=wrap;html=1;align=center;fontFamily=Helvetica;fontSize=11;fontColor=default;labelBackgroundColor=default;" parent="1" vertex="1">
          <mxGeometry x="640" y="-100" width="120" height="60" as="geometry" />
        </mxCell>
        <mxCell id="WKvD1eDFNHThaiheCUBa-57" style="edgeStyle=orthogonalEdgeStyle;shape=connector;rounded=0;orthogonalLoop=1;jettySize=auto;html=1;strokeColor=default;align=center;verticalAlign=middle;fontFamily=Helvetica;fontSize=11;fontColor=default;labelBackgroundColor=default;endArrow=none;endFill=0;entryX=0.415;entryY=1.03;entryDx=0;entryDy=0;entryPerimeter=0;" parent="1" source="WKvD1eDFNHThaiheCUBa-56" target="dXIRx6bEltP1LMhkaaQE-2" edge="1">
          <mxGeometry relative="1" as="geometry">
            <mxPoint x="-90" y="-160" as="targetPoint" />
            <Array as="points">
              <mxPoint x="-180" y="-110" />
              <mxPoint x="-40" y="-110" />
              <mxPoint x="-40" y="-169" />
            </Array>
          </mxGeometry>
        </mxCell>
        <mxCell id="WKvD1eDFNHThaiheCUBa-56" value="Manage" style="shape=rhombus;perimeter=rhombusPerimeter;whiteSpace=wrap;html=1;align=center;fontFamily=Helvetica;fontSize=11;fontColor=default;labelBackgroundColor=default;" parent="1" vertex="1">
          <mxGeometry x="-240" y="-60" width="120" height="60" as="geometry" />
        </mxCell>
        <mxCell id="WKvD1eDFNHThaiheCUBa-58" style="edgeStyle=orthogonalEdgeStyle;shape=connector;rounded=0;orthogonalLoop=1;jettySize=auto;html=1;entryX=0.5;entryY=1;entryDx=0;entryDy=0;strokeColor=default;align=center;verticalAlign=middle;fontFamily=Helvetica;fontSize=11;fontColor=default;labelBackgroundColor=default;endArrow=none;endFill=0;" parent="1" source="WKvD1eDFNHThaiheCUBa-56" target="WKvD1eDFNHThaiheCUBa-35" edge="1">
          <mxGeometry relative="1" as="geometry">
            <Array as="points">
              <mxPoint x="-180" y="190" />
              <mxPoint y="190" />
              <mxPoint y="170" />
            </Array>
          </mxGeometry>
        </mxCell>
        <mxCell id="WKvD1eDFNHThaiheCUBa-63" style="edgeStyle=orthogonalEdgeStyle;shape=connector;rounded=0;orthogonalLoop=1;jettySize=auto;html=1;entryX=1;entryY=0.75;entryDx=0;entryDy=0;strokeColor=default;align=center;verticalAlign=middle;fontFamily=Helvetica;fontSize=11;fontColor=default;labelBackgroundColor=default;endArrow=none;endFill=0;" parent="1" source="WKvD1eDFNHThaiheCUBa-62" target="WKvD1eDFNHThaiheCUBa-12" edge="1">
          <mxGeometry relative="1" as="geometry">
            <Array as="points">
              <mxPoint x="940" y="-400" />
              <mxPoint x="940" y="-190" />
            </Array>
          </mxGeometry>
        </mxCell>
        <mxCell id="WKvD1eDFNHThaiheCUBa-64" style="edgeStyle=orthogonalEdgeStyle;shape=connector;rounded=0;orthogonalLoop=1;jettySize=auto;html=1;entryX=0.25;entryY=1;entryDx=0;entryDy=0;strokeColor=default;align=center;verticalAlign=middle;fontFamily=Helvetica;fontSize=11;fontColor=default;labelBackgroundColor=default;endArrow=none;endFill=0;" parent="1" source="WKvD1eDFNHThaiheCUBa-62" target="dXIRx6bEltP1LMhkaaQE-2" edge="1">
          <mxGeometry relative="1" as="geometry">
            <Array as="points">
              <mxPoint x="-220" y="-400" />
              <mxPoint x="-220" y="-150" />
              <mxPoint x="-50" y="-150" />
              <mxPoint x="-50" y="-170" />
            </Array>
          </mxGeometry>
        </mxCell>
        <mxCell id="WKvD1eDFNHThaiheCUBa-62" value="Manage" style="shape=rhombus;perimeter=rhombusPerimeter;whiteSpace=wrap;html=1;align=center;fontFamily=Helvetica;fontSize=11;fontColor=default;labelBackgroundColor=default;" parent="1" vertex="1">
          <mxGeometry x="305" y="-430" width="120" height="60" as="geometry" />
        </mxCell>
        <mxCell id="WKvD1eDFNHThaiheCUBa-65" style="edgeStyle=orthogonalEdgeStyle;shape=connector;rounded=0;orthogonalLoop=1;jettySize=auto;html=1;entryX=0.604;entryY=0.986;entryDx=0;entryDy=0;entryPerimeter=0;strokeColor=default;align=center;verticalAlign=middle;fontFamily=Helvetica;fontSize=11;fontColor=default;labelBackgroundColor=default;endArrow=none;endFill=0;" parent="1" source="WKvD1eDFNHThaiheCUBa-52" target="WKvD1eDFNHThaiheCUBa-21" edge="1">
          <mxGeometry relative="1" as="geometry">
            <Array as="points">
              <mxPoint x="910" y="-70" />
              <mxPoint x="910" y="180" />
              <mxPoint x="572" y="180" />
            </Array>
          </mxGeometry>
        </mxCell>
        <mxCell id="Y0TM3DpCOrvHG3oChUkY-1" value="GivenAmount" style="ellipse;whiteSpace=wrap;html=1;align=center;fontFamily=Helvetica;fontSize=11;fontColor=default;labelBackgroundColor=default;" parent="1" vertex="1">
          <mxGeometry x="780" y="-180" width="100" height="40" as="geometry" />
        </mxCell>
        <mxCell id="Y0TM3DpCOrvHG3oChUkY-2" style="edgeStyle=orthogonalEdgeStyle;rounded=0;orthogonalLoop=1;jettySize=auto;html=1;endArrow=none;endFill=0;" parent="1" source="Y0TM3DpCOrvHG3oChUkY-1" edge="1">
          <mxGeometry relative="1" as="geometry">
            <mxPoint x="719" y="-182" as="targetPoint" />
          </mxGeometry>
        </mxCell>
        <mxCell id="zSywBKn-56xpjmp5NkG6-2" style="edgeStyle=orthogonalEdgeStyle;rounded=0;orthogonalLoop=1;jettySize=auto;html=1;entryX=0.75;entryY=0;entryDx=0;entryDy=0;endArrow=none;endFill=0;" parent="1" source="zSywBKn-56xpjmp5NkG6-1" target="WKvD1eDFNHThaiheCUBa-21" edge="1">
          <mxGeometry relative="1" as="geometry">
            <Array as="points">
              <mxPoint x="660" y="120" />
            </Array>
          </mxGeometry>
        </mxCell>
        <mxCell id="zSywBKn-56xpjmp5NkG6-1" value="PricePerLitre" style="ellipse;whiteSpace=wrap;html=1;align=center;fontFamily=Helvetica;fontSize=11;fontColor=default;labelBackgroundColor=default;" parent="1" vertex="1">
          <mxGeometry x="610" y="-30" width="100" height="40" as="geometry" />
        </mxCell>
        <mxCell id="zSywBKn-56xpjmp5NkG6-4" style="edgeStyle=orthogonalEdgeStyle;rounded=0;orthogonalLoop=1;jettySize=auto;html=1;entryX=0;entryY=1;entryDx=0;entryDy=0;endArrow=none;endFill=0;" parent="1" source="zSywBKn-56xpjmp5NkG6-3" target="WKvD1eDFNHThaiheCUBa-12" edge="1">
          <mxGeometry relative="1" as="geometry">
            <Array as="points">
              <mxPoint x="540" y="-350" />
              <mxPoint x="540" y="-160" />
              <mxPoint x="660" y="-160" />
              <mxPoint x="660" y="-180" />
            </Array>
          </mxGeometry>
        </mxCell>
        <mxCell id="zSywBKn-56xpjmp5NkG6-3" value="Change" style="ellipse;whiteSpace=wrap;html=1;align=center;fontFamily=Helvetica;fontSize=11;fontColor=default;labelBackgroundColor=default;" parent="1" vertex="1">
          <mxGeometry x="590" y="-370" width="100" height="40" as="geometry" />
        </mxCell>
        <mxCell id="zSywBKn-56xpjmp5NkG6-5" value="PaymentMethod" style="ellipse;whiteSpace=wrap;html=1;align=center;fontFamily=Helvetica;fontSize=11;fontColor=default;labelBackgroundColor=default;" parent="1" vertex="1">
          <mxGeometry x="830" y="-370" width="100" height="40" as="geometry" />
        </mxCell>
        <mxCell id="zSywBKn-56xpjmp5NkG6-6" style="edgeStyle=orthogonalEdgeStyle;rounded=0;orthogonalLoop=1;jettySize=auto;html=1;endArrow=none;endFill=0;" parent="1" source="zSywBKn-56xpjmp5NkG6-5" edge="1">
          <mxGeometry relative="1" as="geometry">
            <mxPoint x="717" y="-220" as="targetPoint" />
          </mxGeometry>
        </mxCell>
        <mxCell id="o35XZqovJWOq-PilXhfG-7" value="&lt;font style=&quot;font-size: 30px;&quot;&gt;*&lt;/font&gt;" style="text;html=1;align=center;verticalAlign=middle;whiteSpace=wrap;rounded=0;" parent="1" vertex="1">
          <mxGeometry x="186.01" y="-130" width="60" height="30" as="geometry" />
        </mxCell>
        <mxCell id="o35XZqovJWOq-PilXhfG-9" value="&lt;font style=&quot;font-size: 30px;&quot;&gt;*&lt;/font&gt;" style="text;html=1;align=center;verticalAlign=middle;whiteSpace=wrap;rounded=0;" parent="1" vertex="1">
          <mxGeometry x="-230" y="3" width="60" height="30" as="geometry" />
        </mxCell>
        <mxCell id="o35XZqovJWOq-PilXhfG-10" value="&lt;font style=&quot;font-size: 30px;&quot;&gt;*&lt;/font&gt;" style="text;html=1;align=center;verticalAlign=middle;whiteSpace=wrap;rounded=0;" parent="1" vertex="1">
          <mxGeometry x="11.009999999999991" y="-130" width="60" height="30" as="geometry" />
        </mxCell>
        <mxCell id="o35XZqovJWOq-PilXhfG-11" value="&lt;font style=&quot;font-size: 30px;&quot;&gt;*&lt;/font&gt;" style="text;html=1;align=center;verticalAlign=middle;whiteSpace=wrap;rounded=0;" parent="1" vertex="1">
          <mxGeometry x="-230" y="-88" width="60" height="30" as="geometry" />
        </mxCell>
        <mxCell id="o35XZqovJWOq-PilXhfG-12" value="&lt;font style=&quot;font-size: 30px;&quot;&gt;*&lt;/font&gt;" style="text;html=1;align=center;verticalAlign=middle;whiteSpace=wrap;rounded=0;" parent="1" vertex="1">
          <mxGeometry x="249.25" y="-420" width="60" height="30" as="geometry" />
        </mxCell>
        <mxCell id="o35XZqovJWOq-PilXhfG-13" value="&lt;font style=&quot;font-size: 30px;&quot;&gt;*&lt;/font&gt;" style="text;html=1;align=center;verticalAlign=middle;whiteSpace=wrap;rounded=0;" parent="1" vertex="1">
          <mxGeometry x="422.25" y="-420" width="60" height="30" as="geometry" />
        </mxCell>
        <mxCell id="o35XZqovJWOq-PilXhfG-15" value="&lt;font style=&quot;font-size: 30px;&quot;&gt;*&lt;/font&gt;" style="text;html=1;align=center;verticalAlign=middle;whiteSpace=wrap;rounded=0;" parent="1" vertex="1">
          <mxGeometry x="320" y="-50" width="60" height="30" as="geometry" />
        </mxCell>
        <mxCell id="o35XZqovJWOq-PilXhfG-16" value="&lt;font style=&quot;font-size: 30px;&quot;&gt;*&lt;/font&gt;" style="text;html=1;align=center;verticalAlign=middle;whiteSpace=wrap;rounded=0;" parent="1" vertex="1">
          <mxGeometry x="260" y="-25" width="60" height="30" as="geometry" />
        </mxCell>
        <mxCell id="o35XZqovJWOq-PilXhfG-18" value="&lt;font style=&quot;font-size: 30px;&quot;&gt;*&lt;/font&gt;" style="text;html=1;align=center;verticalAlign=middle;whiteSpace=wrap;rounded=0;" parent="1" vertex="1">
          <mxGeometry x="750" y="-95" width="60" height="30" as="geometry" />
        </mxCell>
        <mxCell id="o35XZqovJWOq-PilXhfG-19" value="&lt;font style=&quot;font-size: 20px;&quot;&gt;1&lt;/font&gt;" style="text;html=1;align=center;verticalAlign=middle;whiteSpace=wrap;rounded=0;" parent="1" vertex="1">
          <mxGeometry x="680" y="-130" width="60" height="30" as="geometry" />
        </mxCell>
        <mxCell id="o35XZqovJWOq-PilXhfG-74" style="edgeStyle=orthogonalEdgeStyle;rounded=0;orthogonalLoop=1;jettySize=auto;html=1;endArrow=none;startFill=0;" parent="1" source="o35XZqovJWOq-PilXhfG-72" edge="1">
          <mxGeometry relative="1" as="geometry">
            <mxPoint x="360" y="-180" as="targetPoint" />
          </mxGeometry>
        </mxCell>
        <mxCell id="o35XZqovJWOq-PilXhfG-75" style="edgeStyle=orthogonalEdgeStyle;shape=connector;rounded=0;orthogonalLoop=1;jettySize=auto;html=1;entryX=0.5;entryY=1;entryDx=0;entryDy=0;strokeColor=default;align=center;verticalAlign=middle;fontFamily=Helvetica;fontSize=11;fontColor=default;labelBackgroundColor=default;startFill=0;endArrow=none;" parent="1" source="o35XZqovJWOq-PilXhfG-72" target="WKvD1eDFNHThaiheCUBa-21" edge="1">
          <mxGeometry relative="1" as="geometry">
            <Array as="points">
              <mxPoint x="279" y="180" />
              <mxPoint x="561" y="180" />
            </Array>
          </mxGeometry>
        </mxCell>
        <mxCell id="o35XZqovJWOq-PilXhfG-72" value="Contains" style="shape=rhombus;perimeter=rhombusPerimeter;whiteSpace=wrap;html=1;align=center;fontFamily=Helvetica;fontSize=11;fontColor=default;labelBackgroundColor=default;" parent="1" vertex="1">
          <mxGeometry x="301.25" y="-30" width="120" height="60" as="geometry" />
        </mxCell>
      </root>
    </mxGraphModel>
  </diagram>
</mxfile>
